<svg width="20" height="20" viewBox="0 0 20 20" fill="none" xmlns="http://www.w3.org/2000/svg">
<g clip-path="url(#clip0_71_4)">
<path d="M10.123 0.00320434L10.1225 0.0028038H10.1104C10.0735 0.00253677 10.0373 0 10.0003 0C4.48595 0 0 4.48595 0 10C0 15.5141 4.48595 20 10 20C15.514 20 20 15.5141 20 10C20 4.5272 15.5802 0.0696055 10.123 0.00320434ZM10.3909 6.98787C11.7523 6.9366 12.9865 6.62458 14.0729 6.18216C14.4928 7.20439 14.7832 8.35221 14.831 9.60907H10.3908L10.3909 6.98787ZM9.60912 9.60912H5.16896C5.21694 8.35123 5.50618 7.20341 5.92577 6.1814C7.0124 6.62431 8.24727 6.93656 9.60912 6.98787V9.60912ZM4.38991 9.60912H0.790894C0.874474 7.61592 1.59478 5.78584 2.75231 4.31456C3.42362 4.84399 4.24914 5.39776 5.21249 5.86497C4.76117 6.96228 4.43913 8.21914 4.38991 9.60912ZM4.38746 10.3909C4.44086 11.7757 4.75823 13.027 5.21516 14.1338C4.2507 14.601 3.42438 15.1555 2.75258 15.685C1.59505 14.2139 0.874519 12.3839 0.791161 10.3909H4.38746ZM5.16999 10.3909H9.60912V13.0125C8.25492 13.0632 7.02615 13.3718 5.94424 13.8108C5.52051 12.7911 5.22419 11.6465 5.16999 10.3909ZM10.3909 10.3909H14.83C14.7758 11.646 14.4788 12.7911 14.0549 13.8108C12.9731 13.3719 11.7447 13.0634 10.3906 13.0125V10.3909H10.3909ZM15.6125 10.3909H19.2091C19.1256 12.3839 18.4049 14.2142 17.2475 15.6856C16.5752 15.1553 15.7477 14.6005 14.7827 14.1328C15.2397 13.0257 15.5588 11.7748 15.6125 10.3909ZM15.6136 9.60912C15.566 8.22337 15.2529 6.9694 14.7995 5.8595C15.7579 5.39345 16.5791 4.84194 17.2476 4.31456C18.4052 5.78584 19.1256 7.61592 19.2091 9.60889H15.6136V9.60912ZM16.7381 3.72087C16.1182 4.20766 15.3598 4.71524 14.4803 5.14533C13.5072 3.14916 12.1223 1.69105 11.1976 0.862058C13.3728 1.14582 15.3115 2.19208 16.7381 3.72087ZM13.75 5.47004C12.754 5.87236 11.6277 6.15559 10.3909 6.2061V1.2047C11.223 1.91927 12.7237 3.39438 13.75 5.47004ZM9.60912 1.20394V6.20584C8.37157 6.15532 7.24484 5.8716 6.24834 5.46861C7.27475 3.39131 8.77661 1.91713 9.60912 1.20394ZM8.81172 0.861034C8.24972 1.37457 7.59737 2.05287 7.07862 2.70803C6.5629 3.35949 6.0065 4.1826 5.53301 5.15152C4.64781 4.71995 3.88513 4.21011 3.2618 3.72087C4.69054 2.18968 6.63246 1.14288 8.81172 0.861034ZM3.26153 16.279C3.88562 15.7891 4.64959 15.2784 5.53644 14.8468C6.52711 16.8613 7.93796 18.324 8.87532 19.1475C6.67002 18.8773 4.70442 17.8247 3.26153 16.279ZM6.2697 14.5221C7.26087 14.1241 8.38074 13.8442 9.60912 13.7943V18.7469C8.78208 18.0374 7.29513 16.577 6.2697 14.5221ZM10.3909 18.747V13.7943C11.619 13.8445 12.7384 14.1241 13.7297 14.5221C12.7038 16.5758 11.2177 18.0369 10.3909 18.747ZM11.1345 19.146C12.0521 18.3332 13.466 16.8679 14.461 14.8458C15.3486 15.2779 16.1136 15.7889 16.7381 16.279C15.2975 17.8232 13.3355 18.8747 11.1345 19.146Z" fill="white"/>
</g>
<defs>
<clipPath id="clip0_71_4">
<rect width="20" height="20" fill="white"/>
</clipPath>
</defs>
</svg>
